/* XPM */
static char *da44bfc3de0d4fdcfc428e1abfad1775XfsFuyDlykTcq31e[] = {
/* columns rows colors chars-per-pixel */
"42 42 168 2 ",
"   c #13131B",
".  c #18171F",
"X  c #19181F",
"o  c #201C18",
"O  c #2E261B",
"+  c #31281D",
"@  c #3B2C1E",
"#  c #151F24",
"$  c #1B1A25",
"%  c #1D1D2A",
"&  c #201F2D",
"*  c #152025",
"=  c #1D232C",
"-  c #1C282E",
";  c #1E2A30",
":  c #21212D",
">  c #2A2F2F",
",  c #3D2F22",
"<  c #342F2C",
"1  c #32322E",
"2  c #3D352B",
"3  c #252533",
"4  c #242C35",
"5  c #282936",
"6  c #2C2C3B",
"7  c #312F3C",
"8  c #243035",
"9  c #2B3234",
"0  c #273339",
"q  c #2B343B",
"w  c #2E3A3F",
"e  c #303331",
"r  c #3C3533",
"t  c #373834",
"y  c #3C3B37",
"u  c #31303C",
"i  c #34393A",
"p  c #3C3C3A",
"a  c #412F1F",
"s  c #44301F",
"d  c #443323",
"f  c #4B3522",
"g  c #4E3825",
"h  c #42352A",
"j  c #483728",
"k  c #453A2E",
"l  c #4B3A2B",
"z  c #503723",
"x  c #533925",
"c  c #5A3D27",
"v  c #543D2A",
"b  c #5B3E29",
"n  c #433737",
"m  c #453C32",
"M  c #4A3E33",
"N  c #503F33",
"B  c #5D412B",
"V  c #474037",
"C  c #494036",
"Z  c #47413A",
"A  c #4C423A",
"S  c #544234",
"D  c #5C4433",
"F  c #5F4835",
"G  c #53433C",
"H  c #5B463C",
"J  c #5A4838",
"K  c #614027",
"L  c #64432C",
"P  c #6A462D",
"I  c #6D482E",
"U  c #70492E",
"Y  c #654730",
"T  c #644833",
"R  c #6B4C34",
"E  c #654E3C",
"W  c #6F4F3C",
"Q  c #714F37",
"!  c #765236",
"~  c #7B5336",
"^  c #75533A",
"/  c #7C5539",
"(  c #7C583C",
")  c #2F2F40",
"_  c #2E3641",
"`  c #2E3A42",
"'  c #333343",
"]  c #323C44",
"[  c #3D3D46",
"{  c #363748",
"}  c #383749",
"|  c #3B3B4C",
" . c #3E3F51",
".. c #354146",
"X. c #3D4445",
"o. c #34414B",
"O. c #3B444C",
"+. c #3E4151",
"@. c #394851",
"#. c #42424C",
"$. c #594D42",
"%. c #524F49",
"&. c #5A4E4B",
"*. c #434355",
"=. c #4A4654",
"-. c #4A4A54",
";. c #46465A",
":. c #484758",
">. c #47485B",
",. c #4A4A5A",
"<. c #504751",
"1. c #504F55",
"2. c #495356",
"3. c #47575D",
"4. c #4F505C",
"5. c #525455",
"6. c #53535E",
"7. c #634E45",
"8. c #605144",
"9. c #6D5244",
"0. c #715544",
"q. c #725749",
"w. c #755B49",
"e. c #785E4B",
"r. c #685F56",
"t. c #706357",
"y. c #7A6355",
"u. c #746559",
"i. c #78675A",
"p. c #7C6A5C",
"a. c #575760",
"s. c #555562",
"d. c #575764",
"f. c #545E61",
"g. c #5B5A63",
"h. c #5B6C74",
"j. c #64636D",
"k. c #606B6E",
"l. c #666671",
"z. c #686773",
"x. c #6A6975",
"c. c #6E6E7A",
"v. c #72727B",
"b. c #72737F",
"n. c #797979",
"m. c #805637",
"M. c #805739",
"N. c #81583B",
"B. c #826754",
"V. c #836854",
"C. c #836D5D",
"Z. c #89705F",
"A. c #8A786E",
"S. c #977C68",
"D. c #737380",
"F. c #7E7D84",
"G. c #8B8B8B",
"H. c #8C8C8C",
"J. c gray56",
"K. c #908F8F",
"L. c #8F8F90",
"P. c #908F90",
"I. c #909090",
"U. c #919192",
"Y. c #929293",
"T. c #959596",
"R. c #989898",
"E. c #A2A2A2",
/* pixels */
"R.H.H.H.G.G.H.H.P.P.P.P.P.Y.P.P.Y.T.Y.Y.P.P.P.P.T.I.T.I.I.P.P.P.I.T.Y.T.T.T.T.T.E.F.",
"H.1.[ #.#.#.#.#. . .*.#.#.#.#.#.*.#.&.e.B.B.q.e.V.y.,.6.s.s.d.d.d.d.d.d.d.d.s.d.F.L.",
"G.[ 3 3 3 5 3 3 3 3 5 3 6 5 5 6 N 7.D K M.~ K Y ~ Q H 7.<.;.:.;.>.>.;.;.;.;.;.;.D.Y.",
"I.[ 3 3 5 5 5 5 ) 3 ) 5 6 6 6 n / N.L z P P f c I L P / 7.=.;.;.>.>.>.>.;.;.;.;.D.I.",
"P. .3 3 5 5 5 5 5 5 ) 5 5 7 n c I L x f L P z x Y L f L R $.=.=.;.>.>.>.;.;.;.;.D.L.",
"P.| 3 3 5 5 5 ) 5 ) 5 ) ) G Q f P Y v z I I f m H L f c L b N :.;.;.>.;.;.;.;.;.D.L.",
"P.| ; ) 5 5 5 ) 5 5 6 ) 6 G ^ d L U c x I K f x Y P d L L c l | ;.;.>.;.;.;.;.;.D.L.",
"P. .5 5 ) ) 5 5 ) 5 ) 5 G 9.I d L U c z U P f x P L d L P L z < ;.>.>.>.>.;.;.;.D.L.",
"I.[ 5 6 6 6 6 6 6 6 6 ) 9./ b d v D l h S S 2 k M M 2 M B B f + [ ;.>.>.>.;.;.*.D.I.",
"I.#.5 6 6 6 6 6 7 ) ) ' 9.0.M d 9 0 0 4 4 q _ 4 4 6 q 0 r x g + u  .>.>.;.>.;.;.v.I.",
"Y.#.6 6 6 6 6 6 7 ) ) ' 9.( b , q 0 6 3 # 6 ) 3 = 7 ' ` i m f + 7 +.;.;.>.;.;.;.D.H.",
"T.+.6 6 6 ) 6 ) ) ' ' } 9.~ v d q q ' ] 4 q  ._ 4 ' *.` m x g + 7 *.>.;.;.;.;. .D.I.",
"Y.#.6 6 ) ) ) ) ' { { } q.~ x d 9 6 | O.q ' *.] 9 { *...k x a + 7 *.;.;.;.;.*.*.c.I.",
"Y.#.6 6 6 ) ' ' { { }  .q./ c d 4 q | O.` _ *.] 0 ' ;.o.y z z + u  .;.;.;.*.*.| c.H.",
"Y.#.6 ) ) ' ' { { |  . .q.M.L d q q } O...` +..._ { @.@.M x s @ u *.;.;.;.*.*.| l.H.",
"Y.#.7 ) ' ' { } |  . .;.q./ b d X.] ` ] O.O.` ..O.O.w O.Z x x + q +.;.*.*.+.| { x.I.",
"T.#._ ' { { | | +.*.*.*.w.E 1 d l v j h v v h l v v h v v v f + u +.;.*. .| { ' l.L.",
"T.*.) ' { | |  .*.*.;.;.-.X.0 9 B K z g L P f x L b d B L v f + u | *.*.| | ' ) j.H.",
"T.*.' } | | *.*.*.;.;.;.] 8 - q m Y x g L I f c T S d L P L f + u [ *.| | ' ) 7 j.L.",
"I.*.{ }  .*.*.;.;.;.;.-.4 * - 0 9 v x g P I f v F S h 8.7.F f + 6 | | } ' q ' 6 l.L.",
"T.-.| | +.*.;.;.;.:.;.*.' 8 8 > g b x g L P f x P L l k.h.%.f + 5 } } { ' ) ' ) z.I.",
"T.-. .*.*.*.;.;.;.:.*.:.$.m > , v A k g L P f v P B j f.3.Z @ + 5 ' ' i 7 ) ' ' z.H.",
"T.,. .*.:.;.;.;.:.;.*.*.9.R d s b Y l z P L z b P B 5.V 2 y p O 3 u ' ) ' ' { { c.H.",
"R.,.*.;.;.;.;.*.*.*.*.*.0.! x f K Y v z I L g b P F 2.h f Z ..O : 6 7 ' ' { } } z.I.",
"R.6.*.;.;.;.;.*.*.*.| *.0.^ l d B P B z I J d x I L i t C Z 1 O : 6 u ' } } } ' j.K.",
"T.6.;.;.;.*.*.*.+. . .| 9.0.M d L P c z I A d B P P @ i i 1 + O & 7 { } } } { u j.K.",
"T.6.;.;.*.*.*. . .| [ | 0./ v d B I c z P B s B T B d d , s f O : u } } } } ' 6 j.I.",
"I.6.*.*.*. . .| | | } } 9.N.L s P U B z I B s z S C f L P B f O : 7 } } { u 6 3 j.H.",
"I.6.*.*. . .| } { { { { W ( P s S T B s P L f g B S s L I K f O 3 u | } ' 6 3 3 g.I.",
"I.,.*. .| | } } { { ] ' 0.! C s S T x B T I g c P L g B F B g O 3 ' } 7 6 5 3 & g.H.",
"H.,.| | | } { ' ' ' ' ' 8.$.9 2 P I B s P P s c U P s B S C f O : u ' 6 5 3 3 = g.K.",
"L.-.| } { ' { ' ' ' ' ' ..w 8 w B L x g L L s B I P s c P B g O 3 5 6 5 3 3 : % g.I.",
"G.-.{ { ' ' ' u ' ' ' u - # * 0 9 v x g I P f M J L f b P K f O : 3 5 3 3 % & % 6.I.",
"G.=.' ' ' ) ' ' ' ' ' ' 4 - - 0 2 B c x U I f l L P f B P P f O = : 3 : & 3 3 % g.I.",
"G.#.' _ _ ) ' ' u ' { ' y t 4 < c P c x I J d v I L f L I K s O $ : 3 : 3 % : % g.I.",
"H.#.' ) ' ' ' ' ' ' ' ' J S < s L T x z I S d v P L f B U L x O X & : : & & = % g.I.",
"H.#.) ' ' ' ' ' ' ' ' ' 9.! f d v L v x U P f v L b f B Y L s + X % : & % : % % g.I.",
"H.#.' ' ' ' ' { } { ' { 9.M.K d Z L B x P I f c I P d V S c s O . % : : : % % % g.I.",
"I.#.{ ' ' ' { { { ' { { 9.M.K j c P c z U P f c I P f v b x a O . % & & = & & % 6.Y.",
"T.#._ ) ' ' ' ' { ' ' ' Q m.K a c P c z P L d x P L s c B z @ o   $ % % % % % $ 6.I.",
"E.v.l.l.l.z.l.z.l.l.l.l.A.S.C.t.C.Z.p.y.Z.C.u.p.A.C.u.p.C.i.r.5.5.6.6.6.g.6.6.6.F.Y.",
"I.R.Y.Y.I.I.I.I.T.P.P.L.P.I.I.P.K.K.K.K.I.J.I.I.K.I.P.I.I.I.I.I.I.I.Y.I.I.I.I.K.Y.n."
};
