/* XPM */
static char *bc553ff097b348e68bbf209a6ddb01abBSMV2SjjNnCxq7Hm[] = {
/* columns rows colors chars-per-pixel */
"42 42 87 1 ",
"  c #4D2A0B",
". c #532F0D",
"X c #55310E",
"o c #58340D",
"O c #5E3B0F",
"+ c #4E2C11",
"@ c #4F3013",
"# c #553413",
"$ c #593612",
"% c #5B3915",
"& c #563718",
"* c #5A3719",
"= c #57391C",
"- c #5C3C1C",
"; c #623E14",
": c #613F1B",
"> c #5E3E20",
", c #603F21",
"< c #5F401F",
"1 c #654116",
"2 c #65431C",
"3 c #69461C",
"4 c #6D4A1E",
"5 c #704C1F",
"6 c #73511F",
"7 c #5F4121",
"8 c #634323",
"9 c #694623",
"0 c #674826",
"q c #6C4B24",
"w c #664629",
"e c #674829",
"r c #6C4C2B",
"t c #714E24",
"y c #704F2A",
"u c #6F502D",
"i c #745225",
"p c #795626",
"a c #7B5927",
"s c #74532C",
"d c #79562B",
"f c #77582F",
"g c #7B5A2D",
"h c #6D4E31",
"j c #714F30",
"k c #6F5232",
"l c #745433",
"z c #795733",
"x c #775935",
"c c #7B5B33",
"v c #76563A",
"b c #775938",
"n c #7C5D3B",
"m c #7F6034",
"M c #7E613C",
"N c #7E5E41",
"B c #7F6141",
"V c #815D2B",
"C c #815E33",
"Z c #815E3D",
"A c #81602E",
"S c #836234",
"D c #876837",
"F c #83643C",
"G c #886639",
"H c #87683A",
"J c #89693C",
"K c #836442",
"L c #896643",
"P c #866945",
"I c #8A6B45",
"U c #856748",
"Y c #876A4A",
"T c #8B6C4A",
"R c #906D44",
"E c #906E4B",
"W c #8D714E",
"Q c #91714E",
"! c #8D7555",
"~ c #957652",
"^ c #967955",
"/ c #997A55",
"( c #977C5B",
") c #9A7F5D",
"_ c #9B815F",
"` c #9E8462",
"' c #A18665",
/* pixels */
"ffzcmFFFSFKJKKLITTTTTWTTWTTWYYYIIPPPFGmfaf",
"bbnnnbbbccCggppdflbMKPPBvhylKZFCagpi4qquls",
"ssqrq0iu093szxzzlulbnclt9999q3332:%#&-8rur",
"TETFblsllseryrrrhrw<-2wrllxnZLTTWWHFmbnnKP",
"/~~TILLLLKLFczznnnKNnNBNKKKKKKPIITWTTW~~~/",
"KKFxsryitdfgccmcmmCCSFGHGJHHDGGSSVAHIPPPPP",
"FKFKZczfzzcbcffdssissqsqqq9339qiyqqscmSFMB",
"PUZnxxvxbbnnnFFFFnFKPPPUUUUBnvnMPIIKnnFMFP",
"lsrrylzCZSSFGDDSSCCccCczbxfllzbbbnnnbvllxx",
"4tt544545tiggcxzggdi54545tpgVVVVVgVcfaii45",
"rrryyjjrrer990*:rqysyyq3344qqtiiyytqqqtlxs",
"@&-,88-*###...#..##%-:,,-:--:-%%$$#$$.X###",
"NnbvxzlzvnNKKNZNnzzjlyyyreryrlrr99weryZKII",
"))/~~~TJLSSCCccgffdlsyytttttqqqfznI^)`'`_(",
"!Uzdt31;O9xbnbnllysbCCSCCCVCggzzyrwrlvKW!^",
"lt33;34qql9t34s5pppt433;;;;133355tttq9sbnb",
"-:29rrq9:XXX.oX$X.#####$#&*->,,,88889w988<",
"HFFPJJLFZZZcvxly8ezllssyyydzcnzzfcCFLTWWWP",
"aaaVCVgCVVgppgfcCdstt433:;;;::qylzrwqq5t6i",
"FKKcblssyyqq939qszxZZnFnKNKKTKvjlllvvvllMF",
"HMcdfdfdggggbblllvvlxMKPFMbxvvvye0eusbnMmb",
"809082:8:,,8w9rsllxvuurqryrryyrjuuuuu9--=<",
"MBFPKBFUUPKFFIFnMMccbzzfzffzsyyqiusfqrsbMM",
"MMBY!((QWLKnccq1111134qq311;135sgSMFFMMnbb",
"kkurssq3222:229q39344qizmFbfsslfllluuuslll",
"9<%%#  .*:rllyye:$%*%$ooo$;23q3333322qyrq9",
"&&=7rlhjlkreerqrsjyhrheww888:-*>88w9eww-&-",
"MFHFFFSGSSSSGGGGGGDDCcffdsissdfggCCSGGSFcF",
"syr3:;;%::93233qtit53;;;133344tispddsdfssy",
"lr000sbCmcFFMbr2%$$%&$2339qrszznFnnnUInlll",
"888788887<889rklu88hr#+-777wwweqw2:8380988",
"llllvnMnPUUYTIUUITUIIUKnbbbbnMnNnKNKKFncbb",
"xlfxzfzCFFMMFMMFKPPPPYYPBMMMnxlkuerurrrqqz",
"dagczsq:-8rhulsfzfsssq22<$$$#    @#-24iddp",
"&--%#*-wvnKMbzxsrti93333q444556i644331;O$$",
"vbbvjeww,8,788888872<<7>7788wee9tuq38:2weh",
"JHGGGCgttqqqqisfzzzfcmJPTIPKUKPKPPUKKIQQRR",
"5541%;:29sznFFFzgfggggfdppiit55ti4335t5544",
"fzccZKFbvse82828w0eee008wreerrrsiq4339qyfs",
"ssyssyyhhlnPUITTQQQTWTIPUYTKKMKFMKFFFnnbxs",
"ssfbFLKFKZnxsuqsssssfdfsdssi988>%--&=-8qty",
"adapiq31313393qiiidddddfggggcffsuyriqqtddf"
};
