/* XPM */
static char *dbbbb6a777374be189514be10f420cccTmHn5BUeQJlG0klW[] = {
/* columns rows colors chars-per-pixel */
"42 42 215 2 ",
"   c #000101",
".  c #060802",
"X  c #0A0B02",
"o  c #0D0E0D",
"O  c #02030D",
"+  c #100F05",
"@  c #0F1106",
"#  c #131304",
"$  c #1C1C04",
"%  c #12120B",
"&  c #1A1A0D",
"*  c #0E0E11",
"=  c #100F14",
"-  c #121213",
";  c #191912",
":  c #1E2019",
">  c #242404",
",  c #2E2F06",
"<  c #242409",
"1  c #29290C",
"2  c #282700",
"3  c #2C3108",
"4  c #353807",
"5  c #21211F",
"6  c #252813",
"7  c #2E3118",
"8  c #31351D",
"9  c #1B1B21",
"0  c #2B2B27",
"q  c #363624",
"w  c #2F2F31",
"e  c #343434",
"r  c #393939",
"t  c #373739",
"y  c #3D430C",
"u  c #414300",
"i  c #4B4D02",
"p  c #42450C",
"a  c #4A4E0B",
"s  c #434808",
"d  c #534F00",
"f  c #4E5202",
"g  c #4B510D",
"h  c #545505",
"j  c #5A5605",
"k  c #5A5D06",
"l  c #5A5E09",
"z  c #555A06",
"x  c #555916",
"c  c #424818",
"v  c #5B6104",
"b  c #5A6108",
"n  c #656807",
"m  c #646508",
"M  c #74780C",
"N  c #767508",
"B  c #6C7311",
"V  c #6E7513",
"C  c #4E542E",
"Z  c #46483F",
"A  c #4F5132",
"S  c #59582D",
"D  c #7F7D31",
"F  c #3B3B42",
"G  c #4A494B",
"H  c #474743",
"J  c #4E4D52",
"K  c #4F5153",
"L  c #505055",
"P  c #5D5E5F",
"I  c #605F5F",
"U  c #6B6D48",
"Y  c #6D7147",
"T  c #656757",
"R  c #5E5E61",
"E  c #605F62",
"W  c #646466",
"Q  c #6F7168",
"!  c #6F6F70",
"~  c #727373",
"^  c #797A76",
"/  c #747463",
"(  c #7D830A",
")  c #778311",
"_  c #878809",
"`  c #908902",
"'  c #8C950B",
"]  c #86920B",
"[  c #939404",
"{  c #9E9C03",
"}  c #929408",
"|  c #939B09",
" . c #9C9D0B",
".. c #959C02",
"X. c #848710",
"o. c #989B11",
"O. c #A39B01",
"+. c #9CA209",
"@. c #9EA200",
"#. c #9EA31E",
"$. c #A2A404",
"%. c #A9A402",
"&. c #ABAD02",
"*. c #A3A609",
"=. c #B1AE02",
"-. c #AEB104",
";. c #AEB40A",
":. c #A6B408",
">. c #B3B304",
",. c #BDBC04",
"<. c #B3B40C",
"1. c #B9B508",
"2. c #B8B817",
"3. c #A2A714",
"4. c #9FAA3E",
"5. c #A7A73E",
"6. c #A6A93F",
"7. c #AAAC3E",
"8. c #A9A936",
"9. c #AFB037",
"0. c #AFB038",
"q. c #B0B03D",
"w. c #C3BB0E",
"e. c #BBC105",
"r. c #CDCB04",
"t. c #CBCA0D",
"y. c #C5C508",
"u. c #D3CE02",
"i. c #D4CF09",
"p. c #CAD207",
"a. c #D4D503",
"s. c #D5D904",
"d. c #DDDB03",
"f. c #D2D30A",
"g. c #DEDD0C",
"h. c #D7DF0C",
"j. c #CDCD12",
"k. c #C8CD18",
"l. c #D6D615",
"z. c #E1DD03",
"x. c #DAE30B",
"c. c #EDEB02",
"v. c #E4E10B",
"b. c #E6E706",
"n. c #F3EF06",
"m. c #F2F10B",
"M. c #EDEE14",
"N. c #E8E512",
"B. c #DFDB37",
"V. c #D6D821",
"C. c #EEEB25",
"Z. c #F1EF27",
"A. c #EDF228",
"S. c #F1F22A",
"D. c #F4F82B",
"F. c #E5E734",
"G. c #F2EF32",
"H. c #EEF73A",
"J. c #F7F83B",
"K. c #FAFB3C",
"L. c #F6F835",
"P. c #8A8F44",
"I. c #A6A940",
"U. c #A9A940",
"Y. c #B2B14B",
"T. c #ADB052",
"R. c #BCB95C",
"E. c #8E8F7E",
"W. c #92926A",
"Q. c #A2A269",
"!. c #ADAD78",
"~. c #C7C442",
"^. c #EAEB4D",
"/. c #F4F645",
"(. c #FCFC43",
"). c #F7F947",
"_. c #EAEB58",
"`. c #FBFB56",
"'. c #E8E968",
"]. c #F9FE68",
"[. c #FFFF7A",
"{. c #FAFA71",
"}. c #848483",
"|. c #87878A",
" X c #8B8B8B",
".X c #989899",
"XX c #A1A1A1",
"oX c #ADADAC",
"OX c #A7A8A7",
"+X c #B0B0AE",
"@X c #B5B5B4",
"#X c #AFAF97",
"$X c #FBFB97",
"%X c #D8DABC",
"&X c #FEFFA3",
"*X c #F3F9A1",
"=X c #EEEFB0",
"-X c #F6F8BF",
";X c #CECECC",
":X c #C9C9C5",
">X c #D7D7CC",
",X c #CFCFD1",
"<X c #D4D3D3",
"1X c #DBDBD4",
"2X c #DDDDDC",
"3X c #D8D7DC",
"4X c #FBFBCF",
"5X c #E5E5E4",
"6X c #EDECED",
"7X c #E6E5E8",
"8X c #F6F6F6",
"9X c #F6F6F9",
"0X c #FEFEFE",
"qX c #F8F7FD",
"wX c #EBEBF5",
/* pixels */
"0X0X0X0X0X0XqX8XqX0XqX0X8X0XqX8X0X0X0X0X0X0X0X0X0X0X0X0X0X0X0X0X0X0X0X0X0X0X0X0X0X0X",
"0X0X0X0X0X0X0X0X0X0X0X0X0X0X0X0X0X0X0X0X0X0X0X0X0X0X0X0X0X0X0X0X0X0X0X0X0X0X0X0X0X0X",
"0X0X0X0X0X1XOX+XoXoXoXoXoXoXoX@XqX0X0X0X0X0X0X0X0X0X0X0X0X0X0X0X0X0X0X0X0X0X0X0X0X0X",
"0X0X0XqX0X|.  .               - 5X0X0X0X0X0X0X0X0X0X0X0X0X0X0X0X0X0X0X0X0X0X0X0X0X0X",
"0X0X0X0X0X X  O     O . . O O - 6X0X0X0X0X0X0X0X0X0X0X0X0X0X0X0X0X0X0X0X0X0X0X0X0X0X",
"0X0X0X6X|.U s p y y s a a a p c ^ @X0X0X0X0X0X0X0X0X0X0X0X0X0X0X0X0X0X0X0X0X0X0X0X0X",
"0X0X0X2XO f :.' ] ] ' | |  .} )   E 0XqX0X0X0X0X0X0X0X0X0X0X0X0X0X6X6X0X0X6X7X0X0X0X",
"0X0X0X2XO i >.O.@.{ { %.%.$.` N   Q 0X9X0X0X0X0X0X0X0X0X0X0X0XqX0XXX~ 0X0XOX! 0XqX0X",
"qX0X|.H B +.a.r.r.r.r.u.u.u.%.} b A J 1X0XqX0X0X0X0X0X0X0X0X0X0X6XZ q <XqXZ 8 :X0X8X",
"8X0XG X ;.r.c.c.c.c.c.c.N.G.w.O.' g    X0X0X0X0X0X0X0X0X0X0X0X0XXXa h ^ OXx i ~ 0X0X",
"qX0XL # -.r.n.m.m.n.m.m.H.&X~.{ [ z   * 5X0X0X0X0X0X0X0X0X0X0X9X0 1.l.$ # M.<.X <X0X",
"@X: x } u.y.w.y < 1 < < 1 ; Q.B.@._ h 6 5X0X0X0X0X0X0X0X0X0X0X9X0 &.f.$ # x.;.o <X0X",
"+X  B e.x.r.1.>             Q.{.$.[ ( 3  X0X0X0X0X0X0X0X0X0X0X8X0 -.s.$ # v.<.X <X0X",
"+X  ( p.c.e.&.8 ; 5 5 5 0 - Q.$X2.{ ..4 e 0XqX0X8XqX0XqXqX0XqX8X0 &.f.$ @ v.<.X ,X0X",
"+X  #.v.p...z >X0X8X9XqX8XqX=X$X'.=.@.s t 0X0X0X0X0X0X0X0X0X0X8Xe =.f.< @ v.<.; 3X0X",
"+X  9.C.>.n # 1X0X0X0X0XqX0XE.A _.a.>.f - L L L L L L L L L L J *  .y.+ # N.1.% F ^ ",
"+X  q.G.&.h   <X0X0X0X0XqX0XP   _.z.1.m # . . X . X . . X X X . # ( o.$ > 2.| 1   e ",
"+X  9.S.&.j   <X0X8X0X0X0X0XE . '.s.%._ h k b k b k k b b k b k k f h j j d f m f r ",
"+X  0.S.=.j   <X0X0X0X0X8X0XI   _.s.%.%.$.$.$.$.$.$.$.@.@.$.%.$.*.$.$.$.%.O.$.;.z e ",
"+X  9.S.&.j   <X0XqX0X0XqX0XP   F.s.%.=.>.,.,.,.w.e.,.e.,.,.,.,.,.e.,.e.,.,.,.t.v e ",
"+X  0.S.=.h   <X0XqX0X0X0X0XP   g.s.%.-.,.y.t.t.t.t.t.t.t.t.t.j.t.t.t.t.t.t.t.g.n e ",
"+X  9.S.>.h   <X0X0X0X0XqX0XP   z.d.$.y.n.D.(.K.K.K.K.K.K.J.J.J.K.K.K.K.J.H.H.(.V e ",
"+X  9.D.=.j   <X0X8X0X0X0X0XR   g.s.O.p.c.D./././././.)./././.(./././././././.`.P.e ",
"+X  0.S.=.j   <X0X0X0X0XqX0XR   h.a.$.*.3.8.U.U.5.U.5.5.5.5.7.7.I.4.4.I.I.I.7.Y.S w ",
"+X  0.A.-.z   <X0X0X0X0XqX0XW   h.a.=.k                                           e ",
"+X  9.A.&.h   <X0XqX0X0X8X0XI   h.a.1.h w ,X;X;X;X;X;X;X;X;X;X;X;X;X;X;X;X;X;X;X;X<X",
"+X  T.).j.X.4 1X0X0X0X0X0X0XW.4 x.a.1.d e 0X0X0X0X0X0X0X0X0X0X0X0X0X0X0X0X0X0X0X0X0X",
"@X  !.[.D.k.{ %X6X5X5X5X5X6XR.{ x.u.=.i H 0X0XqX0XqX0XqX0X0XqX0X0XqX0X0X0XqX0XqXqX0X",
"oX  #X&XD.V.@.7 o o o o % O N 1.b.b.*.7 3X0X0X0X0X0X0X0X0X0X0X0X0X0X0X0X0X0X0X0X0X0X",
"2XXXQ Y ].F.j.<             N i.e._ 4 ; 5X0X0X0X0X0X0X0X0X0X0X0X0X0X0X0X0X0X0X0X0X0X",
"0X0XG X *X`.A.x 2 3 3 3 , <  .z.&.l   r 6X0X0X0X0X0X0X0X0X0X0X0X0X0X0X0X0X0X0X0X0X0X",
"qX0XH o 4X[.L.t.-.>.>.>.>.<.z.b.t.M   :X0X0X0X0X0X0X0X0X0X0X0X0X0X0X0X0X0X0X0X0X0X0X",
"0X0X2X@Xw P.].V.t.j.j.j.i.t.u.y.2 T <X6X0X0X0X0X0X0X0X0X0X0X0X0X0X0X0X0X0X0X0X0X0X0X",
"0X0X0X5X  Y $X/.S.S.S.S.G.Z.i.&.  W 0XqX0X0X0X0X0X0X0X0X0X0X0X0X0X0X0X0X0X0X0X0X0X0X",
"0X0X0X5Xo / 4X'.^.^.^.^.^.^.2.o.# ! 0X8X0X0X0X0X0X0X0X0X0X0X0X0X0X0X0X0X0X0X0X0X0X0X",
"0X0X0X8X0X|.  - % % % % % - * ; 2X8X0X0X0X0X0X0X0X0X0X0X0X0X0X0X0X0X0X0X0X0X0X0X0X0X",
"0X0X0X8X0X X  .               - 6X0XqX0X0X0X0X0X0X0X0X0X0X0X0X0X0X0X0X0X0X0X0X0X0X0X",
"0X0X0XqX0XXX0 r t t r r t r e H 8X0X0X0X0X0X0X0X0X0X0X0X0X0X0X0X0X0X0X0X0X0X0X0X0X0X",
"0X0X0X0X0X0X0X0X0X0X0X0X0X0X0X0X0X0X0X0X0X0X0X0X0X0X0X0X0X0X0X0X0X0X0X0X0X0X0X0X0X0X",
"0X0X0X0X0X0X0X0X0X0XqX0X0X0XqX0X0X0X0X0X0X0X0X0X0X0X0X0X0X0X0X0X0X0X0X0X0X0X0X0X0X0X",
"0X0X0X0X0X0X0X0X0X0X0X0X0X0XqX0X0X0X0X0X0X0X0X0X0X0X0X0X0X0X0X0X0X0X0X0X0X0X0X0X0X0X",
"0X0X0X0X0X0X0X0X0X0X0X0X0X0X0X0X0X0X0X0X0X0X0X0X0X0X0X0X0X0X0X0X0X0X0X0X0X0X0X0X0X0X"
};
