/* XPM */
static char *player[] = {
/* columns rows colors chars-per-pixel */
"42 42 209 2 ",
"   c #060C2F",
".  c #1D1421",
"X  c #191E23",
"o  c #050D32",
"O  c #0A0E33",
"+  c #050E39",
"@  c #140F34",
"#  c #190D34",
"$  c #041033",
"%  c #0A1135",
"&  c #0E193D",
"*  c #0A1839",
"=  c #131335",
"-  c #181A3C",
";  c #230D35",
":  c #290D36",
">  c #350B36",
",  c #241D36",
"<  c #063634",
"1  c #132C2E",
"2  c #2C2939",
"3  c #292438",
"4  c #392E2C",
"5  c #4A1A1A",
"6  c #591919",
"7  c #581618",
"8  c #640C11",
"9  c #641415",
"0  c #641418",
"q  c #731919",
"w  c #77271F",
"e  c #470B38",
"r  c #5E0539",
"t  c #580839",
"y  c #4A1637",
"u  c #670839",
"i  c #75043B",
"p  c #7C093C",
"a  c #72163D",
"s  c #4D2637",
"d  c #53263A",
"f  c #463B3E",
"g  c #723328",
"h  c #733324",
"j  c #094C33",
"k  c #0A5635",
"l  c #1D5631",
"z  c #2A432B",
"x  c #315832",
"c  c #2E4E36",
"v  c #08643A",
"b  c #0A6B3D",
"n  c #19673A",
"m  c #0E743E",
"M  c #336F3F",
"N  c #77543B",
"B  c #784A37",
"V  c #40743F",
"C  c #081144",
"Z  c #0D1C44",
"A  c #171D40",
"S  c #181E41",
"D  c #1B2145",
"F  c #1F264C",
"G  c #113350",
"H  c #232444",
"J  c #24294A",
"K  c #252848",
"L  c #2D3E58",
"P  c #2A3654",
"I  c #32365C",
"U  c #34385E",
"Y  c #22314F",
"T  c #0C1D63",
"R  c #353B60",
"E  c #363C64",
"W  c #4B334A",
"Q  c #493251",
"!  c #773541",
"~  c #1C494A",
"^  c #0C5649",
"/  c #1B504A",
"(  c #3C5E4C",
")  c #127943",
"_  c #357C47",
"`  c #3B426C",
"'  c #3D4571",
"]  c #5C4948",
"[  c #544B52",
"{  c #655642",
"}  c #725E45",
"|  c #634C49",
" . c #726F4E",
".. c #424976",
"X. c #464B77",
"o. c #4C537D",
"O. c #6B5B68",
"+. c #83231F",
"@. c #850B3D",
"#. c #98033B",
"$. c #9B163C",
"%. c #A91838",
"&. c #A41527",
"*. c #8E3A27",
"=. c #D5183A",
"-. c #D7023B",
";. c #E8013C",
":. c #E9173C",
">. c #C52036",
",. c #A95734",
"<. c #AB5030",
"1. c #8D763A",
"2. c #B2773F",
"3. c #C46B37",
"4. c #D27C35",
"5. c #CE7C3E",
"6. c #9D1440",
"7. c #B70D40",
"8. c #C30341",
"9. c #CB0542",
"0. c #D70C42",
"q. c #CE1944",
"w. c #D31945",
"e. c #E60A44",
"r. c #F70045",
"t. c #CD2746",
"y. c #E52445",
"u. c #885944",
"i. c #B14945",
"p. c #846247",
"a. c #896648",
"s. c #987953",
"d. c #936D4C",
"f. c #A46649",
"g. c #B47846",
"h. c #A27550",
"j. c #D35A4C",
"k. c #D34149",
"l. c #EE5A4F",
"z. c #E15B4D",
"x. c #EE584E",
"c. c #D76B48",
"v. c #C57943",
"b. c #DA6B56",
"n. c #CF7351",
"m. c #EB674E",
"M. c #E87351",
"N. c #E56E4F",
"B. c #0D8342",
"V. c #138542",
"C. c #2C8449",
"Z. c #378746",
"A. c #478848",
"S. c #568948",
"D. c #4F9553",
"F. c #6F8F4D",
"G. c #BF803E",
"H. c #DA873D",
"J. c #CF853C",
"K. c #988848",
"L. c #949A50",
"P. c #999950",
"I. c #908E54",
"U. c #B6834D",
"Y. c #AD8754",
"T. c #BA8B52",
"R. c #AC9D52",
"E. c #B2A353",
"W. c #A8AA6F",
"Q. c #D68645",
"!. c #D8974D",
"~. c #C69555",
"^. c #D69957",
"/. c #CD8850",
"(. c #E09C4B",
"). c #E89A57",
"_. c #C9A158",
"`. c #DAA557",
"'. c #E4A254",
"]. c #E5AA56",
"[. c #ECAB57",
"{. c #E5A15A",
"}. c #E5AD59",
"|. c #E9AD59",
" X c #E9A154",
".X c #E6B05B",
"XX c #EAB35A",
"oX c #E5A04E",
"OX c #D49D61",
"+X c #D7AB67",
"@X c #CDA971",
"#X c #E6AC68",
"$X c #E6B269",
"%X c #E6BC7F",
"&X c #4D5487",
"*X c #5A619C",
"=X c #7C7385",
"-X c #5E66A5",
";X c #7179C1",
":X c #7C83AC",
">X c #9A8A90",
",X c #9097BA",
"<X c #A39EA4",
"1X c #ADAEAE",
"2X c #D1C2BE",
"3X c #E4CDB5",
"4X c #B7C2C7",
"5X c #E3D6CE",
"6X c None",
/* pixels */
"6X6X6X6X6X6X6X6X6X6X6X6X6X6X6X6X6X6X6X6X6X6X6X6X6X6X6X6X6X6X6X6X6X6X6X6X6X6X6X6X6X6X",
"6X6X6X6X6X6X6X6X6X6X6X6X6X6X6X6X6X6X6X6X6X6X6X6X6X6X6X6X6X6X6X6X6X6X6X6X6X6X6X6X6X6X",
"6X6X6X6X6X6X6X6X6X6X6X6X6X6X6X6X6X6X6X6X6X6X6X6X6X6X6X6X6X6X6X6X6X6X6X6X6X6X6X6X6X6X",
"6X6X6X6X6X6X6X6X6X6X6X6X6X6X6X6X6X6X6X6X6X6X6X6X6X6X6XH.3.6X6X6X6X6X6X6X6X6X6X6X6X6X",
"6X6X6X6X6X6X6X6X6X6X6X6X6X6X6X6X6X6X6X6X6X6X6X6X6X6X`.J.3.!.6X6X6X6X6X6X6X6X6X6X6X6X",
"6X6X6X6X6X6X6X6X6X6X6X6X6X6X6X6X6X6X6X6X6X6X6X6X6X6Xd.g.4.'..X6X6X6X6X6X6X6X6X6X6X6X",
"6X6X6X6X6X6X6X6X6X6X6XO % % % % % % % % O % % * J K 2 p.^.#X$X6X6X6X6X6X6X6X6X6X6X6X",
"6X6X6X6X6X6X6X6X6X6X6X% % - & O o $ $ $ $ $ o % D D D W d.n.b.6X6X6X6X6X6X6X6X6X6X6X",
"6X6X6X6X6X6X6X6X6X6XO % & H S % # # @ # # # = # % & H H 2 6.w.6X6X6X6X6X6X6X6X6X6X6X",
"6X6X6X6X6X6X6X6X$ $ $ $ & S & @ t i i i p i @.u : * - & : #.-.6X6X6X6X6X6X6X6X6X6X6X",
"6X6X6X6X6X6X6X6X; # ; @ % % & > $.q.w.w.t.q.w.7.y O % % : $.w.6X6X6X6X6X6X6X6X6X6X6X",
"6X6X6X6X6X6X6X6Xp p i > O % > p t.x.l.x.z.l.l.j.d O $ o , i.z.6X6X6X6X6X6X6X6X6X6X6X",
"6X6X6X6X6X6X6X6X-.7.8.t + O u t.N.~.^.^.{.'.'.U.f O $ = f U.[.6X6X6X6X6X6X6X6X6X6X6X",
"6X6X6X6X6X6X6X8.p 7.9.u O O ! j.a.{ } T.#X}./.{ 3 O % f s.~.XX6X6X6X6X6X6X6X6X6X6X6X",
"6X6X6X6X6X6Xr.8.e u 7.r @ 2 a.~.[ - 3 a.[.].a., - K 3 p.`..XXX6X6X6X6X6X6X6X6X6X6X6X",
"6X6X6X6X6X6Xr.8.> u 8.r 3 } /.OX>Xo.- N '. XN , o.=Xu.g. X|.|.6X6X6X6X6X6X6X6X6X6X6X",
"6X6X6X6X6X6X8.#.> t 8.a { T.'.#X2X,X, N ).).N H :X1Xd.J.oX|.6X6X6X6X6X6X6X6X6X6X6X6X",
"6X6X6X6X6X6Xu e # u 9.k.Y.}.[.$X5X,XK } #X#Xp.J ,X4XF.K.`.6X6X6X6X6X6X6X6X6X6X6X6X6X",
"6X6X6X6X6X6X@ $ % u 0.m.}.}.}.$X3X1X[ s.#X+Xd.[ <X1XZ.S.R.6X6X6X6X6X6X6X6X6X6X6X6X6X",
"6X6X6X6X6X6Xo $ + t =.N.XX}.|.$X%X@XY.~.].H.3.Y.@X<XZ.C.S.6X6X6X6X6X6X6X6X6X6X6X6X6X",
"6X6X6X6X6X6X6X% % e %.b.|.XX}.}.XX#X}..X].4.H.XXXXR.C.B.B.6X6X6X6X6X6X6X6X6X6X6X6X6X",
"6X6X6X6X6X6X6X6X+ # y f.'.}.}.|.|.|.XX}.|.!.`..XXXR.n ) V.6X6X6X6X6X6X6X6X6X6X6X6X6X",
"6X6X6X6X6X6X6X6X6X% # } h.!.[.[.XXXXXX}.XX|.XX.XE.F.n b 6X6X6X6X6X6X6X6X6X6X6X6X6X6X",
"6X6X6X6X6X6X6X6X6X6X6X2 B /.].}.}.}.}.].}.}.|.`.F._ k k 6X6X6X6X6X6X6X6X6X6X6X6X6X6X",
"6X6X6X6X6X6X6X6X6X6X6X6XW I.P.L.P.P.P.^.).(.~.Y.[ j < G ..6X6X6X6X6X6X6X6X6X6X6X6X6X",
"6X6X6X6X6X6X6X6X6X6X6X6X6XA.A.Z.V M M K.H.v.h.O.Y $ Z Y ..6X6X6X6X6X6X6X6X6X6X6X6X6X",
"6X6X6X6X6X6X6X6X6X6X6X6X6XD.F.A.x z z B ,.f.O.X.Y D F L ..6X6X6X6X6X6X6X6X6X6X6X6X6X",
"6X6X6X6X6X6X6X6X6X6X6XV.D.W._.U.g 6 7 9 g ] X.X.` ` ` ` ......X.-X;X;X*XX.....6X6X6X",
"6X6X6X6X6X6X6X6X6X6X6XF.I.+Xv.<.w 8 8 8 6 s Q ` ` ` ` ` ` ` ` ` &X*X*X&X` ` ` 6X6X6X",
"6X6X6X6X6X6X6X6X6X6X6X@X+XQ.<.w q q q 9 9 0 s U R R R R E R L R E ` E E R U R 6X6X6X",
"6X6X6X6X6X6X6X6X6X6X6X#X).z.>.&.<.,.<.w 9 8 s I U U U I I J S F D D D J 6X6X6X6X6X6X",
"6X6X6X6X6X6X6X6X6X6X6X6XM.y.-.=.c.Q.5.*.9 6 s L L L L L P A + O % O O * 6X6X6X6X6X6X",
"6X6X6X6X6X6X6X6X6X6X6X6Xm.e.;.:.M.!.,.h 5 4 c ~ ~ / ~ / ~ & + o + + o   6X6X6X6X6X6X",
"6X6X6X6X6X6X6X6X6X6X6X6X6Xe.;.:.N.2.g 5 4 n n j k k ^ ^ ^ Z C $ C C + O 6X6X6X6X6X6X",
"6X6X6X6X6X6X6X6X6X6X6X6X6X6X6X6X6X1.x x l m 6X6Xk v b b 6X6X6X6X6X6X6X6X6X6X6X6X6X6X",
"6X6X6X6X6X6X6X6X6X6X6X6X6X6X6X6X6X6X) ) B.6X6X6X< j b 6X6X6X6X6X6X6X6X6X6X6X6X6X6X6X",
"6X6X6X6X6X6X6X6X6X6X6X6X6X6X6X6XT T G ^ 6X6X6X. X 1 6X6X6X6X6X6X6X6X6X6X6X6X6X6X6X6X",
"6X6X6X6X6X6X6X6X6X6X6X6X6X6X6X6XT T T 6X6X6X6X. X X 6X6X6X6X6X6X6X6X6X6X6X6X6X6X6X6X",
"6X6X6X6X6X6X6X6X6X6X6X6X6X6X6X6XT T T 6X6X6X6X. . . 6X6X6X6X6X6X6X6X6X6X6X6X6X6X6X6X",
"6X6X6X6X6X6X6X6X6X6X6X6X6X6X6X6XT T T 6X6X6X6X. . . 6X6X6X6X6X6X6X6X6X6X6X6X6X6X6X6X",
"6X6X6X6X6X6X6X6X6X6X6X6X6X6X6X6XT T 6X6X6X6X6X. . 6X6X6X6X6X6X6X6X6X6X6X6X6X6X6X6X6X",
"6X6X6X6X6X6X6X6X6X6X6X6X6X6X6X6XT T 6X6X6X6X6X. 6X6X6X6X6X6X6X6X6X6X6X6X6X6X6X6X6X6X"
};
