/* XPM */
static char *_49813eaac89442acb8b4a803ebc737fbm1AraFIaVGJvIW9[] = {
/* columns rows colors chars-per-pixel */
"42 42 73 1 ",
"  c #362C35",
". c #382E36",
"X c #372D39",
"o c #382E39",
"O c #3A3036",
"+ c #3D333C",
"@ c #3E383F",
"# c #41373E",
"$ c #41393F",
"% c #3F3742",
"& c #413740",
"* c #443B43",
"= c #483F46",
"- c #473D48",
"; c #493F49",
": c #4A4146",
"> c #4D444B",
", c #51474D",
"< c #52494E",
"1 c #4E4950",
"2 c #544B52",
"3 c #594F56",
"4 c #554E58",
"5 c #594F58",
"6 c #565156",
"7 c #5A5156",
"8 c #5D545A",
"9 c #61575C",
"0 c #62595E",
"q c #5E5860",
"w c #655C62",
"e c #685F64",
"r c #666066",
"t c #6B6266",
"y c #6D646A",
"u c #6D686E",
"i c #70676C",
"p c #736A6E",
"a c #6F6970",
"s c #756C72",
"d c #796E73",
"f c #7B7275",
"g c #7E7579",
"h c #7E797F",
"j c #817777",
"k c #80777A",
"l c #837A7D",
"z c #887E7F",
"x c #7F7B80",
"c c #867D81",
"v c #887F82",
"b c #868084",
"n c #8B8285",
"m c #8E8589",
"M c #8E8A8C",
"N c #90878A",
"B c #938B8D",
"V c #968E91",
"C c #988F92",
"Z c #969193",
"A c #9B9295",
"S c #9E9699",
"D c #9E999B",
"F c #A0979A",
"G c #A29B9D",
"H c #A59EA1",
"J c #A89FA1",
"K c #A6A1A3",
"L c #A8A1A4",
"P c #ADA6A9",
"I c #ADA9AB",
"U c #B0A7AB",
"Y c #B1ADAE",
/* pixels */
"lnZZBZSHLLLKKGFAD20AAASGGKAADAb7MVmVBnnp<l",
"AASFFFACSASSSAAAZ69CFSAFSHDSDGt*ZJAGSAFp,m",
"mnmNzznBCAAAVVBCB<8AASBmNNNMnZp$zAmNCVAp>l",
"mljjfppgncdgcmZZB<8BSZgsppgnbMd:vAcfBCAi,z",
"jpshcpppgfsdgkBNB<8BABsujjnMzMp=nFkfBCAi<z",
"fypsggggfsysddvmN:9ZSlffxbnMbMp=gAgfCBVp6n",
"njjlffcjdssdggcNZ:0ZBljbbbnMZZt$cAvzBNBp<n",
"nmnnbgffxgsssfkcc,eZMMMMMMbbxbp$skzgknNf,j",
">>>=**##*&%oo+oX&*>2:<,,:**$*@>@%o&&&;=,=<",
"<2<67580*>wweeyyyrq762<<<1<<*:<:>1122>>;::",
"BAFLPIUV,eAFFFGGGGLGKHGGDDDM<8KPKHHHLDVSCV",
"AAAAACAf*eCCCCACBVBBZZBBBMDb,:DGDSAFDDACCC",
"CCNNCSFk-yNBCAAAACBNNCANbzMM<:AGCcdvNmcmAV",
"NNlcBASk=eNCCBCCCABnBBBNzznl2:AGVgsccjdzVN",
"NkppfmSg*tCvzBCACBCAZBBnbznf1:DDvgcNcddkNm",
"lye0ykBk:0NiijkzvnNBBNMzcjnj,:DDmcvNNcgnBN",
"kgcasdvv>qceyyewtfzdcNNnvnmd,2AVmmmmBcgnMN",
"242;;,152*2;-&*=;;:*-11>,21>;28;>221>-:::1",
"*&-&-&&&*%&%*>#=>>>,1o%>=-&---*=*%$#%%&*&&",
"vvvBVVBBmVMmbf#dUJLLM%dNNBVVVAVVVncgff-8mv",
"NCAFFFSFSAAVBy#0AHAAi#gSGGLJHGLHGGASFd$tHA",
"vNVCCVVCVVCVBp#9mcpli#pCGANNVVAAZBBNAp>rGS",
"vNvBksskmNCSCp#3Vgili#iNGnfkzmBBnnnlnf:9SS",
"vvvckfpslNVCCy.3Vcdcp#pnSjlnVBmnjfjfzd:rVA",
"NcvclnljlNNBCe#3Clfnp+iNCkfmCCnjlffgnd:yBz",
"NvvvvdjlkvvnBy#3CNzmp#pVAvkzNBCzjlnnmp=pBl",
"vvlldddlklcvBp#3BNnnp$sBCnzlnlnzljccmi:pNl",
"vNvljcjcvvBNFj#9CCvBf*sVJGGFAAAAABZABf:iBz",
"iiw80938eeewyy*0fnlli;lvfwwytiuiayissf:umf",
"#+o%o#&oXXX%O+.*#+*+++=.X oO..X  X   $+&#.",
"&3Mccckcccxkcgkw=yuiiiaaas>1ayyyaaaasasspe",
"4wGYPIJHHHHHHJAw;NGGGGHJJm2wSGDHHHHHGGGSAC",
"8rAJGSSSCCVBCBi7=jBBBNvccd,5nGAAZCCCVBNvNc",
"4rBKVmNNNVBCSCi9*dCVvlcdlk:9cACAACCNBBclNv",
"1rBGcknvvcNBAAp9*sCNvdkkjj,9jACAABnzvvccvv",
"1yBScjkzczlnAAf7*dNmcccmvf,7zZCABjjlkzlcNv",
">rmBfytfzvzzCCj7*dVnjdlNNk,9zNBCnddffjkcBv",
":rmnyweeszcznnf9=dBvllznvk<9nCNnjfdddjggvv",
",emzyyeeyfjfjzf7;zBjkvnznf<9NAnlgddkpddjcc",
"2yNnvkhkknmzmnl9,nGBnzmmNz,9CFNBNcnBldzjjk",
"2ii88580w9www893>y9w0ee9,e<9y5wew99w890wei",
"-*+o#&&##+&&+o.+O.o+++OO##&&#++###+#####+&"
};
